<svg width="31" height="16" viewBox="0 0 31 16" fill="currentColor" xmlns="http://www.w3.org/2000/svg">
<path d="M27.7815 0H0V2.46835H4.30717V11.1652C4.30848 12.3628 4.78483 13.511 5.6317 14.3579C6.47858 15.2047 7.62681 15.681 8.82445 15.6823H24.4984C25.696 15.681 26.8442 15.2047 27.6911 14.3579C28.538 13.511 29.0143 12.3628 29.0156 11.1652L29.9413 2.46835L30.2498 0H27.7815ZM26.5473 11.1652C26.5472 11.7085 26.3313 12.2296 25.947 12.6138C25.5628 12.998 25.0417 13.2139 24.4983 13.2139H8.82445C8.28109 13.2139 7.75999 12.998 7.37576 12.6138C6.99153 12.2296 6.77562 11.7085 6.77553 11.1652V2.46835H27.4729L26.5473 11.1652Z" fill="currentColor"/>
</svg>
